Coordinates
version=1
nRows=13
nColumns=36
inDegrees=yes

Units are S.I. units (second, meters, Newtons, ...)
If the header above contains a line with 'inDegrees', this indicates whether rotational values are in degrees (yes) or radians (no).

endheader
time	pelvis_tilt	pelvis_list	pelvis_rotation	pelvis_tx	pelvis_ty	pelvis_tz	hip_flexion_r	hip_adduction_r	hip_rotation_r	knee_angle_r	knee_angle_r_beta	ankle_angle_r	subtalar_angle_r	mtp_angle_r	hip_flexion_l	hip_adduction_l	hip_rotation_l	knee_angle_l	knee_angle_l_beta	ankle_angle_l	subtalar_angle_l	mtp_angle_l	lumbar_extension	lumbar_bending	lumbar_rotation	arm_flex_r	arm_add_r	arm_rot_r	elbow_flex_r	pro_sup_r	arm_flex_l	arm_add_l	arm_rot_l	elbow_flex_l	pro_sup_l
      3.83333330	     11.34430600	     -1.54469799	     -1.77942065	      1.05334673	      1.00502689	     -0.30832898	     -3.26290875	     -5.45293925	     -7.20852634	      7.27420264	      0.12695879	      7.65947853	     -0.13342495	     -7.49999987	    -11.54990696	     -7.67665458	     -9.82168992	     12.16467837	      0.21231369	     21.46930873	     -1.20661835	     -7.49999987	    -22.04253796	      1.66789766	     -1.44782816	      4.48002664	    -27.28738925	   -346.69600753	     39.53123793	     80.49892725	     -1.75759610	    -18.89125595	     -5.58710892	     33.12252443	     86.64482203
      3.85000000	     11.83822850	     -2.12807197	     -2.20688360	      1.05251409	      0.99973646	     -0.30868986	     -3.96088257	     -5.01551665	     -6.87983495	      6.67703675	      0.11653628	      7.91012289	     -0.25659689	     -7.49999987	    -12.70215070	     -8.05363701	     -8.57404506	     14.29019844	      0.24941101	     23.35420353	     -1.56358735	     -7.49999987	    -20.85885849	      2.10543903	     -2.09749615	      2.69028418	    -27.33973203	   -346.54767117	     39.57446222	     80.50181806	     -2.46380120	    -18.77491843	     -5.56065190	     33.23441491	     86.65784755
      3.86666670	     12.44516832	     -2.82780588	     -2.55719537	      1.05071548	      0.99966444	     -0.31532097	     -4.93735784	     -4.49372000	     -6.47011479	      5.67208423	      0.09899655	      7.68699657	     -0.60345719	     -7.49999987	    -14.32375213	     -8.40835183	     -7.22969987	     15.72148049	      0.27439160	     24.88768384	     -1.49810539	     -7.49999987	    -20.03052055	      2.93731292	     -1.61057217	     -1.31067750	    -27.67535838	   -350.06743249	     42.02352337	     80.74735041	     -2.04776229	    -18.30576429	     -4.82729432	     33.14545061	     89.21077513
      3.88333330	     12.98449234	     -3.46049020	     -2.99169946	      1.03942756	      0.99594926	     -0.32170537	     -5.06149937	     -4.17905000	     -6.04547444	      5.78957502	      0.10104715	      8.03230885	     -0.68100157	     -7.49999987	    -15.30822685	     -8.59634189	     -5.81018547	     17.42600196	      0.30414111	     26.83327702	     -1.70810259	     -7.49999987	    -19.58074261	      3.57369369	     -2.57483739	     -2.38710423	    -27.92658583	   -349.33281526	     41.62188847	     78.63661126	     -2.07211316	    -17.95678726	     -4.52790769	     33.35674374	     86.84987915
      3.90000000	     13.32147648	     -4.06592212	     -3.58333955	      1.03790261	      0.99025833	     -0.32850920	     -4.60513517	     -3.94762576	     -5.28409214	      6.40067498	      0.11171285	      8.35202366	     -1.38652622	     -7.49999987	    -15.94945443	     -8.60433100	     -4.60489024	     18.80480397	      0.32820574	     28.61844051	     -2.05196704	     -7.49999987	    -19.16944415	      4.38238132	     -1.66676383	     -5.51560738	    -28.08985609	   -352.95813543	     42.87292168	     79.80328627	     -0.88314343	    -17.60477774	     -2.20932207	     32.89315861	     88.34785245
      3.91666670	     13.80531354	     -4.61364808	     -4.07478104	      1.04360664	      0.98723172	     -0.33757440	     -4.39175803	     -3.81517096	     -4.78687026	      6.94695815	      0.12124729	      8.86964449	     -2.03803018	     -7.49999987	    -17.42722980	     -8.44316376	     -3.78491977	     18.82196201	      0.32850521	     29.78985973	     -1.87819104	     -7.49999987	    -18.66547173	      5.12769044	     -2.55848798	     -7.05279384	    -28.52665642	   -353.85535057	     43.08636447	     78.90648442	     -1.48863253	    -17.05253207	     -2.20413794	     33.38700280	     87.25749797
      3.93333330	     14.24446033	     -5.02294084	     -4.46747504	      1.04236695	      0.98384101	     -0.34447739	     -4.12205938	     -3.84997857	     -4.66180012	      7.59143338	      0.13249551	      9.23160158	     -2.30903894	     -7.49999987	    -18.71151441	     -8.14202805	     -3.01153443	     18.68282700	      0.32607684	     30.65497690	     -1.92568324	     -7.49999987	    -18.11084678	      5.80305509	     -3.32272775	     -8.18282498	    -28.96237532	   -354.04483660	     42.57126437	     78.87631076	     -1.88879259	    -16.49825584	     -2.02173264	     33.50616914	     87.22869808
      3.95000000	     14.82963052	     -5.48176339	     -4.84974587	      1.04257404	      0.98091610	     -0.35091146	     -3.98415279	     -3.81862878	     -4.37658054	      8.24725335	      0.14394173	      9.59778437	     -2.92211829	     -7.49999987	    -20.27015252	     -7.86502210	     -2.46322364	     18.23022633	      0.31817747	     31.26178649	     -1.96002957	     -7.49999987	    -18.17025272	      6.45362643	     -2.56030860	    -11.62337608	    -28.16806947	   -360.01602326	     42.86500403	     78.96562559	     -0.72736672	    -15.97191260	      0.39259027	     33.49693299	     86.17285401
      3.96666670	     15.36116723	     -5.98275151	     -5.32027261	      1.03939501	      0.97465145	     -0.35080890	     -3.85379500	     -3.63545313	     -4.07228514	      8.79491478	      0.15350022	      9.86828051	     -3.48254762	     -7.49999987	    -21.66178708	     -7.67461830	     -2.16390270	     17.79401200	      0.31056410	     31.92771891	     -1.98519175	     -7.49999987	    -18.08895111	      6.78036019	     -2.81924262	    -13.73263462	    -27.15017881	   -364.02674742	     42.60589771	     80.90230158	      0.33826810	    -16.21869397	      2.69741037	     33.06292427	     85.04123697
      3.98333330	     15.79044174	     -6.51377835	     -5.85105292	      1.03943048	      0.96724003	     -0.35652119	     -3.75813513	     -3.39976754	     -3.59400892	      9.21183071	      0.16077678	     10.11923231	     -4.31541930	     -7.49999987	    -22.90271634	     -7.51627455	     -2.00659872	     17.30750659	      0.30207298	     32.39310575	     -2.04528154	     -7.49999987	    -18.03681651	      7.08529976	     -3.46797154	    -15.12684603	    -26.77957886	   -365.99298653	     42.30491931	     80.92126727	      0.92783555	    -16.35930783	      2.90773886	     33.30154551	     84.13540018
      4.00000000	     16.35833000	     -6.99612698	     -6.18363529	      1.03778328	      0.97114921	     -0.35795184	     -4.03931074	     -3.13087676	     -3.59854704	      9.35847999	      0.16333629	     10.46782882	     -4.44337534	     -7.49999987	    -24.38359967	     -7.44424831	     -1.97493478	     16.43860595	      0.28690780	     32.85199603	     -1.58454782	     -7.49999987	    -18.30583951	      7.24188135	     -4.44010231	    -15.87495017	    -25.64596986	   -367.34600852	     39.58691838	     81.02585517	      1.52268655	    -16.71366217	      3.29143875	     33.05307906	     84.20983276
      4.01666670	     16.79064899	     -7.31233315	     -6.56938253	      1.03261876	      0.97892498	     -0.36060811	     -4.21998580	     -2.90994179	     -3.18816649	      9.40315702	      0.16411605	     10.50674668	     -4.83995178	     -7.49999987	    -25.75388922	     -7.23881850	     -1.96142631	     15.12748773	      0.26402447	     32.60802884	     -1.35300008	     -7.49999987	    -18.40874596	      7.32051093	     -4.68915668	    -17.21540557	    -23.77896030	   -371.47019864	     37.57058963	     83.63462945	      3.29493258	    -17.04335887	      6.39600560	     30.84815386	     83.85101740
      4.03333330	     17.11841308	     -7.57643594	     -6.80163403	      1.03101073	      0.97848982	     -0.36111335	     -4.97278251	     -2.58549926	     -2.84228854	      8.44275817	      0.14735393	     10.03689589	     -5.15747258	     -7.49999987	    -27.13078936	     -7.09319918	     -1.86389915	     13.46192618	      0.23495494	     31.87910964	     -1.13808365	     -7.49999987	    -18.29213507	      7.34867188	     -5.58020286	    -17.58516988	    -22.32819049	   -373.02159676	     34.30472404	     84.80819066	      3.93978115	    -17.32450370	      7.12949180	     29.81164590	     82.68520354
